@startuml
interface Mediator {
    +mediate(colleague: Colleague): void
}

class ConcreteMediator {
    -colleague1: Colleague
    -colleague2: Colleague
    +mediate(colleague: Colleague): void
}

interface Colleague {
    +send(message: String): void
    +receive(message: String): void
}

class ConcreteColleague1 {
    +send(message: String): void
    +receive(message: String): void
}

class ConcreteColleague2 {
    +send(message: String): void
    +receive(message: String): void
}

Mediator <|-- ConcreteMediator
Mediator <-- Colleague
Colleague  <|-- ConcreteColleague1
Colleague  <|-- ConcreteColleague2
ConcreteMediator --> ConcreteColleague1
ConcreteMediator --> ConcreteColleague2



hide empty fields
hide empty methods

skinparam class {
  BackgroundColor LightYellow
  BorderColor DarkSlateGray
  ArrowColor DarkSlateGray
  FontColor DarkSlateGray
}
@enduml
